<?xml version="1.0" encoding="utf-8"?>
<!-- Generator: Adobe Illustrator 24.2.1, SVG Export Plug-In . SVG Version: 6.00 Build 0)  -->
<svg version="1.1" id="Layer_1" xmlns="http://www.w3.org/2000/svg" xmlns:xlink="http://www.w3.org/1999/xlink" x="0px" y="0px"
	 viewBox="0 0 32 32" style="enable-background:new 0 0 32 32;" xml:space="preserve">
<style type="text/css">
	.st0{fill:url(#SVGID_1_);}
</style>
<g>
	
		<linearGradient id="SVGID_1_" gradientUnits="userSpaceOnUse" x1="16.0023" y1="34.0023" x2="16.0023" y2="9.1525" gradientTransform="matrix(1 0 0 -1 0 34)">
		<stop  offset="0" style="stop-color:#2B89DD"/>
		<stop  offset="1" style="stop-color:#000000"/>
	</linearGradient>
	<path class="st0" d="M11.6,5.1c-2.3,0-4.6,0-6.9,0c-1.7,0-2.8-1-2.8-2.5S3,0,4.6,0C9.2,0,13.8,0,18.4,0c5.4,0.1,10,3.8,11.4,9.3
		c1.5,6-1.3,12.1-7,14.7c-1.2,0.6-2.6,0.9-4,0.9c-1.6,0-3.2,0-4.9,0c-1.7,0-2.7-0.9-2.7-2.4c0-1.6,1-2.5,2.7-2.5c1.3,0,2.6,0,3.9,0
		c3.8,0,6.6-2.4,7.3-6.2c0.7-3.9-1.8-7.6-5.7-8.5c-0.4-0.1-0.8-0.1-1.2-0.1C16.1,5.1,13.8,5.1,11.6,5.1z"/>
	<path d="M1.9,23.2c0-1.8,0-3.6,0-5.5c0-4.6,3-7.7,7.6-7.8c2.8-0.1,5.5,0,8.2,0c1.8,0,2.9,0.9,3,2.4c0.1,1.5-1,2.7-2.5,2.7
		c-2.9,0-5.8,0-8.7,0c-2,0-2.8,0.9-2.8,2.8c0,3.8,0,7.6,0,11.3c0,1.4-0.6,2.4-1.7,2.8c-1.5,0.5-3.1-0.6-3.1-2.3
		C1.9,27.4,1.9,25.3,1.9,23.2L1.9,23.2z"/>
</g>
</svg>
